<svg id="Group_5" data-name="Group 5" xmlns="http://www.w3.org/2000/svg" xmlns:xlink="http://www.w3.org/1999/xlink" width="22" height="22" viewBox="0 0 22 22">
  <defs>
    <clipPath id="clip-path">
      <path id="Clip_4" data-name="Clip 4" d="M0,22H22V0H0Z" fill="none"/>
    </clipPath>
  </defs>
  <path id="Fill_1" data-name="Fill 1" d="M18.333,22H3.667A3.671,3.671,0,0,1,0,18.333V3.667A3.671,3.671,0,0,1,3.667,0H18.333A3.671,3.671,0,0,1,22,3.667V18.333A3.671,3.671,0,0,1,18.333,22ZM2.444,9.778v8.555a1.209,1.209,0,0,0,1.222,1.222H18.333a1.209,1.209,0,0,0,1.222-1.222V9.778H15.718A4.106,4.106,0,0,1,15.889,11a4.889,4.889,0,0,1-9.778,0,5.026,5.026,0,0,1,.171-1.222ZM11,8.555A2.444,2.444,0,1,0,13.444,11,2.447,2.447,0,0,0,11,8.555Zm0-2.444a4.859,4.859,0,0,1,3.226,1.222h5.329V3.667a1.209,1.209,0,0,0-1.222-1.222H3.667A1.209,1.209,0,0,0,2.444,3.667V7.333H7.773A4.863,4.863,0,0,1,11,6.111Z" fill="#fff"/>
  <path id="Clip_4-2" data-name="Clip 4" d="M0,22H22V0H0Z" fill="none"/>
  <g id="Group_5-2" data-name="Group 5" clip-path="url(#clip-path)">
    <path id="Fill_3" data-name="Fill 3" d="M0,2.64H2.64V0H0Z" transform="translate(15.84 3.52)" fill="#fff"/>
  </g>
</svg>
