<svg xmlns="http://www.w3.org/2000/svg" width="20" height="16" viewBox="0 0 20 16">
  <path id="Path" d="M17.952,3.986c.007.173.013.347.013.523A11.5,11.5,0,0,1,6.29,16,11.752,11.752,0,0,1,0,14.186a8.567,8.567,0,0,0,.979.055,8.314,8.314,0,0,0,5.1-1.729,4.1,4.1,0,0,1-3.834-2.8,4.208,4.208,0,0,0,1.854-.07A4.057,4.057,0,0,1,.8,5.679V5.627a4.133,4.133,0,0,0,1.859.506A4.023,4.023,0,0,1,.836,2.771,3.97,3.97,0,0,1,1.393.74,11.712,11.712,0,0,0,9.85,4.96a3.991,3.991,0,0,1-.106-.92A4.072,4.072,0,0,1,13.846,0a4.125,4.125,0,0,1,2.995,1.276A8.29,8.29,0,0,0,19.448.3a4.071,4.071,0,0,1-1.8,2.235A8.336,8.336,0,0,0,20,1.895a8.281,8.281,0,0,1-2.048,2.091Z" fill="#fff"/>
</svg>
